<svg width="15" height="14" viewBox="0 0 15 14" fill="none" xmlns="http://www.w3.org/2000/svg">
<path d="M3.16366 4.19817C3.86856 4.19817 4.44 3.62674 4.44 2.92184C4.44 2.21694 3.86856 1.64551 3.16366 1.64551C2.45876 1.64551 1.88733 2.21694 1.88733 2.92184C1.88733 3.62674 2.45876 4.19817 3.16366 4.19817Z" fill="white"/>
<path d="M5.64594 5.16523V12.2463H7.84453V8.74457C7.84453 7.82057 8.01836 6.92573 9.16403 6.92573C10.2939 6.92573 10.3079 7.98215 10.3079 8.8029V12.2469H12.5077V8.36365C12.5077 6.45615 12.097 4.99023 9.86753 4.99023C8.79711 4.99023 8.07961 5.57765 7.78619 6.13357H7.75644V5.16523H5.64594ZM2.06311 5.16523H4.26519V12.2463H2.06311V5.16523Z" fill="white"/>
</svg>
