<svg width="17" height="17" viewBox="0 0 17 17" fill="none" xmlns="http://www.w3.org/2000/svg">
<path d="M0.743988 0.7435C0.851394 0.635822 0.978987 0.550392 1.11946 0.492102C1.25993 0.433812 1.41053 0.403809 1.56261 0.403809C1.7147 0.403809 1.86529 0.433812 2.00577 0.492102C2.14624 0.550392 2.27383 0.635822 2.38124 0.7435L8.50011 6.86469L14.619 0.7435C14.7265 0.635996 14.8541 0.55072 14.9946 0.49254C15.135 0.434359 15.2856 0.404414 15.4376 0.404414C15.5896 0.404414 15.7402 0.434359 15.8807 0.49254C16.0211 0.55072 16.1487 0.635996 16.2562 0.7435C16.3637 0.851003 16.449 0.978628 16.5072 1.11909C16.5654 1.25955 16.5953 1.41009 16.5953 1.56212C16.5953 1.71416 16.5654 1.8647 16.5072 2.00516C16.449 2.14562 16.3637 2.27325 16.2562 2.38075L10.135 8.49963L16.2562 14.6185C16.3637 14.726 16.449 14.8536 16.5072 14.9941C16.5654 15.1345 16.5953 15.2851 16.5953 15.4371C16.5953 15.5892 16.5654 15.7397 16.5072 15.8802C16.449 16.0206 16.3637 16.1482 16.2562 16.2558C16.1487 16.3633 16.0211 16.4485 15.8807 16.5067C15.7402 16.5649 15.5896 16.5948 15.4376 16.5948C15.2856 16.5948 15.135 16.5649 14.9946 16.5067C14.8541 16.4485 14.7265 16.3633 14.619 16.2558L8.50011 10.1346L2.38124 16.2558C2.27374 16.3633 2.14611 16.4485 2.00565 16.5067C1.86519 16.5649 1.71465 16.5948 1.56261 16.5948C1.41058 16.5948 1.26004 16.5649 1.11958 16.5067C0.979116 16.4485 0.851491 16.3633 0.743988 16.2558C0.636485 16.1482 0.551208 16.0206 0.493028 15.8802C0.434847 15.7397 0.404902 15.5892 0.404902 15.4371C0.404902 15.2851 0.434847 15.1345 0.493028 14.9941C0.551208 14.8536 0.636485 14.726 0.743988 14.6185L6.86518 8.49963L0.743988 2.38075C0.636311 2.27334 0.55088 2.14575 0.49259 2.00528C0.4343 1.8648 0.404297 1.71421 0.404297 1.56212C0.404297 1.41004 0.4343 1.25945 0.49259 1.11897C0.55088 0.978499 0.636311 0.850905 0.743988 0.7435Z" fill="black"/>
</svg>
