<svg width="25" height="25" viewBox="0 0 25 25" fill="none" xmlns="http://www.w3.org/2000/svg">
<path d="M23.6406 0.390625H1.35938C0.823535 0.390625 0.390625 0.823535 0.390625 1.35938V23.6406C0.390625 24.1765 0.823535 24.6094 1.35938 24.6094H23.6406C24.1765 24.6094 24.6094 24.1765 24.6094 23.6406V1.35938C24.6094 0.823535 24.1765 0.390625 23.6406 0.390625ZM18.0552 8.071L11.6796 16.9108C11.5905 17.0352 11.473 17.1366 11.3369 17.2065C11.2008 17.2764 11.05 17.3128 10.897 17.3128C10.744 17.3128 10.5932 17.2764 10.4571 17.2065C10.321 17.1366 10.2036 17.0352 10.1145 16.9108L6.33936 11.6796C6.22432 11.5191 6.33936 11.2951 6.53613 11.2951H7.95596C8.26475 11.2951 8.5584 11.4435 8.74004 11.6978L10.8955 14.6888L15.6545 8.08916C15.8361 7.83789 16.1268 7.68652 16.4386 7.68652H17.8584C18.0552 7.68652 18.1702 7.91055 18.0552 8.071Z" fill="#E1002B"/>
</svg>
