<svg width="17" height="27" viewBox="0 0 17 27" fill="none" xmlns="http://www.w3.org/2000/svg">
<path d="M8.5 5.0625C8.72378 5.0625 8.93839 5.15139 9.09662 5.30963C9.25486 5.46786 9.34375 5.68247 9.34375 5.90625V9.28125C9.34375 9.50503 9.25486 9.71964 9.09662 9.87787C8.93839 10.0361 8.72378 10.125 8.5 10.125C8.27622 10.125 8.06161 10.0361 7.90338 9.87787C7.74514 9.71964 7.65625 9.50503 7.65625 9.28125V5.90625C7.65625 5.68247 7.74514 5.46786 7.90338 5.30963C8.06161 5.15139 8.27622 5.0625 8.5 5.0625ZM15.25 18.5625C15.25 20.3527 14.5388 22.0696 13.273 23.3355C12.0071 24.6013 10.2902 25.3125 8.5 25.3125C6.70979 25.3125 4.9929 24.6013 3.72703 23.3355C2.46116 22.0696 1.75 20.3527 1.75 18.5625V8.4375C1.75 6.64729 2.46116 4.9304 3.72703 3.66453C4.9929 2.39866 6.70979 1.6875 8.5 1.6875C10.2902 1.6875 12.0071 2.39866 13.273 3.66453C14.5388 4.9304 15.25 6.64729 15.25 8.4375V18.5625ZM8.5 0C6.26224 0 4.11612 0.888948 2.53379 2.47129C0.951448 4.05362 0.0625 6.19974 0.0625 8.4375V18.5625C0.0625 20.8003 0.951448 22.9464 2.53379 24.5287C4.11612 26.1111 6.26224 27 8.5 27C10.7378 27 12.8839 26.1111 14.4662 24.5287C16.0486 22.9464 16.9375 20.8003 16.9375 18.5625V8.4375C16.9375 6.19974 16.0486 4.05362 14.4662 2.47129C12.8839 0.888948 10.7378 0 8.5 0V0Z" fill="white"/>
</svg>
