<svg width="14" height="12" viewBox="0 0 14 12" fill="none" xmlns="http://www.w3.org/2000/svg">
<path fill-rule="evenodd" clip-rule="evenodd" d="M8.56073 0.65359C9.15573 0.426493 9.80611 0.387608 10.4239 0.542194C10.9152 0.665123 11.3671 0.905682 11.7417 1.2407C12.2024 1.07135 12.6395 0.842154 13.0414 0.558648L13.3684 1.02223L13.9196 1.15647C13.7253 1.9544 13.3357 2.68987 12.788 3.29769C12.7964 3.38925 12.8008 3.48119 12.8011 3.57324L12.8011 3.57512C12.8011 7.03566 11.135 9.57441 8.74191 10.8481C6.36266 12.1145 3.32186 12.1005 0.612109 10.5951C0.382456 10.4675 0.270444 10.1989 0.341385 9.94596C0.412326 9.69301 0.64766 9.52185 0.910165 9.5323C1.86711 9.57036 2.8144 9.38008 3.67578 8.98324C2.82304 8.45704 2.20912 7.83233 1.78229 7.1584C1.21293 6.2594 0.99799 5.30705 0.959116 4.45184C0.920356 3.5991 1.05581 2.83132 1.19821 2.28073C1.26974 2.00411 1.34397 1.77874 1.40119 1.62047C1.42983 1.54125 1.45431 1.47858 1.47219 1.43443C1.48114 1.41234 1.48845 1.39486 1.49382 1.38224L1.50038 1.36696L1.50206 1.36313C1.50606 1.35395 1.51031 1.34485 1.51482 1.33583L2.02223 1.58954L2.48649 1.2635C3.00589 2.00309 3.70013 2.60274 4.50738 3.00906C5.14949 3.33226 5.84725 3.52515 6.56053 3.57875C6.55634 2.94923 6.74338 2.33309 7.09715 1.81196C7.45484 1.28504 7.96574 0.880687 8.56073 0.65359ZM2.25179 2.74889C2.14758 3.20351 2.06437 3.78005 2.09256 4.40032C2.1246 5.1052 2.29969 5.85477 2.74084 6.55132C3.1797 7.24427 3.90345 7.91914 5.08918 8.44613C5.27741 8.52979 5.40551 8.70891 5.42383 8.91408C5.44215 9.11925 5.34782 9.31823 5.17739 9.43392C4.54715 9.86173 3.85702 10.1836 3.13421 10.3917C4.93267 10.8499 6.73486 10.6311 8.20881 9.84656C10.2122 8.78026 11.6662 6.63905 11.6665 3.57606C11.666 3.45347 11.6542 3.33118 11.6312 3.21076C11.5956 3.02476 11.6552 2.83329 11.79 2.70032C11.9164 2.57569 12.0335 2.44286 12.1406 2.30293C12.0121 2.35033 11.882 2.39386 11.7506 2.43343C11.5369 2.49777 11.3054 2.43087 11.159 2.2625C10.8936 1.95734 10.5409 1.74104 10.1485 1.64288C9.75619 1.54471 9.34317 1.5694 8.96532 1.71362C8.58748 1.85783 8.26304 2.11461 8.03589 2.44922C7.80874 2.78383 7.68984 3.18014 7.69526 3.58453L7.69536 3.59213H7.69531V4.15944C7.69531 4.46703 7.45019 4.71859 7.14271 4.72656C6.05222 4.75484 4.97166 4.51298 3.99727 4.02254C3.34738 3.69543 2.75817 3.2645 2.25179 2.74889Z" fill="white"/>
</svg>
